<?xml version="1.0" encoding="UTF-8"?>
<svg width="115px" height="32px" viewBox="0 0 115 32" version="1.1" xmlns="http://www.w3.org/2000/svg" xmlns:xlink="http://www.w3.org/1999/xlink">
    <title>Group</title>
    <defs>
        <linearGradient x1="-9.61604394e-15%" y1="50.0000741%" x2="100%" y2="50.0000741%" id="linearGradient-1">
            <stop stop-color="#D93025" offset="0%"></stop>
            <stop stop-color="#EA4335" offset="100%"></stop>
        </linearGradient>
        <linearGradient x1="21.5640174%" y1="99.1085337%" x2="60.2510942%" y2="-0.887298623%" id="linearGradient-2">
            <stop stop-color="#FCC934" offset="0%"></stop>
            <stop stop-color="#FBBC04" offset="100%"></stop>
        </linearGradient>
        <linearGradient x1="75.0795182%" y1="95.8368035%" x2="19.6366245%" y2="-4.16736111%" id="linearGradient-3">
            <stop stop-color="#1E8E3E" offset="0%"></stop>
            <stop stop-color="#34A853" offset="100%"></stop>
        </linearGradient>
    </defs>
    <g id="Page-1" stroke="none" stroke-width="1" fill="none" fill-rule="evenodd">
        <g id="Artboard" transform="translate(-444.000000, -347.000000)">
            <g id="Group" transform="translate(444.000000, 347.000000)">
                <rect id="Rectangle" fill="#B66100" x="0" y="2" width="115" height="29.6744186"></rect>
                <rect id="Rectangle" fill="#F09328" x="0" y="0" width="115" height="29.6744186"></rect>
                <text id="Install-now" stroke-opacity="0.202792935" stroke="#000000" stroke-width="0.3" font-family="IBMPlexSans-Bold, IBM Plex Sans" font-size="10.4026927" font-weight="bold" fill="#FFFFFF">
                    <tspan x="32.4616298" y="19.1060534">INSTALL NOW</tspan>
                </text>
                <g id="Google_Chrome_icon_(February_2022)" transform="translate(10.762489, 6.866741)">
                    <ellipse id="Oval" fill="#FFFFFF" fill-rule="nonzero" cx="8.11446724" cy="8.09112936" rx="4.05655822" ry="4.04644242"></ellipse>
                    <path d="M1.08830558,12.139359 C2.72903007,14.9740915 5.920069,16.5438138 9.17344553,16.1165666 C12.4268221,15.6893195 15.1018392,13.3492419 15.9511402,10.1875087 C16.8004413,7.02577553 15.656771,3.66503615 13.0534211,1.6723985 C10.4500711,-0.320239145 6.89972701,-0.552359055 4.05790903,1.08427595 C0.177468438,3.31906542 -1.15206797,8.26859342 1.08830558,12.139359 L1.08830558,12.139359 Z M11.6275481,6.06969533 C12.4479113,7.48706101 12.3315612,9.25780635 11.3327517,10.5562353 C10.3339421,11.8546643 8.64937163,12.4250735 7.06455299,12.0014819 C5.47973435,11.5778903 4.30677056,10.2437171 4.09261294,8.6210853 C3.87845532,6.99845349 4.66527857,5.40691275 6.08618814,4.58859624 C8.02640921,3.47120286 10.5073599,4.13431334 11.6275481,6.06969533 L11.6275481,6.06969533 Z" id="Shape"></path>
                    <path d="M8.11446724,4.04647412 L15.1394795,4.04647412 C13.6906362,1.54240055 11.012365,-0.000185022906 8.11393064,1.67026046e-05 C5.2154963,0.000218428116 2.53744091,1.54317679 1.08894787,4.04745201 L4.60145402,10.1161377 L4.60459786,10.1153285 C3.87732388,8.86431714 3.87558491,7.32102046 4.60003781,6.06838151 C5.32449071,4.81574255 6.66471269,4.04469144 8.11446724,4.04647412 Z" id="Path" fill="url(#linearGradient-1)" fill-rule="nonzero"></path>
                    <ellipse id="Oval" fill="#1A73E8" fill-rule="nonzero" cx="8.11446724" cy="8.09291654" rx="3.21144192" ry="3.20343358"></ellipse>
                    <path d="M11.62721,10.1171156 L8.11470388,16.1858014 C11.0131269,16.1861983 13.6914958,14.6438113 15.1405232,12.1398567 C16.5895507,9.63590215 16.5889982,6.55095742 15.1390739,4.04751945 L8.11409539,4.04751945 L8.11325028,4.05065544 C9.56300907,4.04786634 10.9037693,4.81800573 11.6290729,6.07016152 C12.3543764,7.32231731 12.353666,8.86562477 11.62721,10.1171156 L11.62721,10.1171156 Z" id="Path" fill="url(#linearGradient-2)" fill-rule="nonzero"></path>
                    <path d="M4.60169066,10.1171831 L1.08918451,4.04849734 C-0.360394886,6.55214634 -0.360510141,9.63710384 1.08888217,12.1408606 C2.53827449,14.6446174 5.21687872,16.1866231 8.11531236,16.1858017 L11.6278185,10.1171156 L11.6255536,10.1148227 C10.9030736,11.3685978 9.5640646,12.1417491 8.11430647,12.1422363 C6.66454833,12.1427235 5.32501738,11.3704724 4.60169066,10.1171831 L4.60169066,10.1171831 Z" id="Path" fill="url(#linearGradient-3)" fill-rule="nonzero"></path>
                </g>
            </g>
        </g>
    </g>
</svg>