<?xml version="1.0" encoding="UTF-8"?>
<svg width="173px" height="72px" viewBox="0 0 173 72" version="1.1" xmlns="http://www.w3.org/2000/svg" xmlns:xlink="http://www.w3.org/1999/xlink">
    <title>btn_install</title>
    <defs>
        <linearGradient x1="-9.61604394e-15%" y1="50.0000741%" x2="100%" y2="50.0000741%" id="linearGradient-1">
            <stop stop-color="#D93025" offset="0%"></stop>
            <stop stop-color="#EA4335" offset="100%"></stop>
        </linearGradient>
        <linearGradient x1="21.7107835%" y1="99.1085337%" x2="60.1981855%" y2="-0.887298623%" id="linearGradient-2">
            <stop stop-color="#FCC934" offset="0%"></stop>
            <stop stop-color="#FBBC04" offset="100%"></stop>
        </linearGradient>
        <linearGradient x1="74.9500758%" y1="95.8368035%" x2="19.7933384%" y2="-4.16736111%" id="linearGradient-3">
            <stop stop-color="#1E8E3E" offset="0%"></stop>
            <stop stop-color="#34A853" offset="100%"></stop>
        </linearGradient>
    </defs>
    <g id="Page-1" stroke="none" stroke-width="1" fill="none" fill-rule="evenodd">
        <g id="Artboard" transform="translate(-630.000000, -115.000000)">
            <g id="btn_install" transform="translate(630.000001, 115.018262)">
                <rect id="Rectangle" fill="#D37100" x="0" y="3" width="173" height="68" rx="6"></rect>
                <rect id="Rectangle" fill="#F09328" x="0" y="0" width="173" height="68" rx="6"></rect>
                <g id="Install" transform="translate(65.999999, 28.781738)" fill="#FFFFFF" fill-rule="nonzero" stroke="#000000" stroke-opacity="0.326806128" stroke-width="0.2">
                    <polygon id="Path" points="0 14.2 0 11.78 1.8 11.78 1.8 2.66 0 2.66 0 0.24 6.64 0.24 6.64 2.66 4.84 2.66 4.84 11.78 6.64 11.78 6.64 14.2"></polygon>
                    <polygon id="Path" points="13.44 7.6 12.1 4.8 12.04 4.8 12.04 14.2 9.18 14.2 9.18 0.24 12.5 0.24 16.32 6.84 17.66 9.64 17.72 9.64 17.72 0.24 20.58 0.24 20.58 14.2 17.26 14.2"></polygon>
                    <path d="M28.18,14.44 C26.9533333,14.44 25.9133333,14.23 25.06,13.81 C24.2066667,13.39 23.48,12.8466667 22.88,12.18 L24.88,10.16 C25.8266667,11.2266667 26.9933333,11.76 28.38,11.76 C29.1266667,11.76 29.68,11.6066667 30.04,11.3 C30.4,10.9933333 30.58,10.5866667 30.58,10.08 C30.58,9.69333333 30.4733333,9.37 30.26,9.11 C30.0466667,8.85 29.6133333,8.67333333 28.96,8.58 L27.58,8.4 C26.1,8.21333333 25.0166667,7.76666667 24.33,7.06 C23.6433333,6.35333333 23.3,5.41333333 23.3,4.24 C23.3,3.61333333 23.42,3.04 23.66,2.52 C23.9,2 24.2433333,1.55333333 24.69,1.18 C25.1366667,0.806666667 25.6833333,0.516666667 26.33,0.31 C26.9766667,0.103333333 27.7133333,0 28.54,0 C29.5933333,0 30.52,0.166666667 31.32,0.5 C32.12,0.833333333 32.8066667,1.32 33.38,1.96 L31.36,4 C31.0266667,3.61333333 30.6233333,3.29666667 30.15,3.05 C29.6766667,2.80333333 29.08,2.68 28.36,2.68 C27.68,2.68 27.1733333,2.8 26.84,3.04 C26.5066667,3.28 26.34,3.61333333 26.34,4.04 C26.34,4.52 26.47,4.86666667 26.73,5.08 C26.99,5.29333333 27.4133333,5.44666667 28,5.54 L29.38,5.76 C30.82,5.98666667 31.8866667,6.43 32.58,7.09 C33.2733333,7.75 33.62,8.68666667 33.62,9.9 C33.62,10.5666667 33.5,11.18 33.26,11.74 C33.02,12.3 32.67,12.78 32.21,13.18 C31.75,13.58 31.18,13.89 30.5,14.11 C29.82,14.33 29.0466667,14.44 28.18,14.44 Z" id="Path"></path>
                    <polygon id="Path" points="41.96 2.94 41.96 14.2 38.92 14.2 38.92 2.94 35.14 2.94 35.14 0.24 45.74 0.24 45.74 2.94"></polygon>
                    <path d="M56.42,14.2 L55.42,10.88 L50.76,10.88 L49.76,14.2 L46.68,14.2 L51.28,0.24 L55.04,0.24 L59.58,14.2 L56.42,14.2 Z M53.12,3 L53.02,3 L51.48,8.3 L54.68,8.3 L53.12,3 Z" id="Shape"></path>
                    <polygon id="Path" points="61.52 14.2 61.52 0.24 64.56 0.24 64.56 11.5 69.88 11.5 69.88 14.2"></polygon>
                    <polygon id="Path" points="72.12 14.2 72.12 0.24 75.16 0.24 75.16 11.5 80.48 11.5 80.48 14.2"></polygon>
                </g>
                <g id="Google_Chrome_icon_(February_2022)" transform="translate(25.517172, 20.020563)">
                    <ellipse id="Oval" fill="#FFFFFF" fill-rule="nonzero" cx="14.0008241" cy="13.9967238" rx="6.99924668" ry="6.99988027"></ellipse>
                    <path d="M1.87777886,20.9996957 C4.7087096,25.9034571 10.2145763,28.6188962 15.8280012,27.8798078 C21.4414261,27.1407193 26.0569409,23.0926541 27.5223378,17.6232191 C28.9877346,12.1537841 27.0144286,6.34009127 22.5225694,2.89305718 C18.0307102,-0.553976911 11.904893,-0.955517676 7.00157739,1.87567276 C0.306206717,5.74160167 -1.98779545,14.3037162 1.87777886,20.9996957 L1.87777886,20.9996957 Z M20.0623467,10.4998753 C21.4778138,12.951755 21.2770616,16.0149409 19.5537005,18.2610738 C17.8303395,20.5072067 14.9237562,21.493949 12.1892862,20.7611842 C9.45481623,20.0284195 7.43096683,17.7204532 7.06145604,14.9134866 C6.69194526,12.1065201 8.04954195,9.35333758 10.5012007,7.93774407 C13.8488874,6.00478196 18.1295572,7.15188687 20.0623467,10.4998753 L20.0623467,10.4998753 Z" id="Shape"></path>
                    <path d="M14.0008241,6.99993512 L26.1218862,6.99993512 C23.62203,2.66817567 19.0009005,-0.000320068359 13.9998982,2.8893588e-05 C8.99889592,0.000377855535 4.37813879,2.66951848 1.87888707,7.00162675 L7.93941812,17.4997555 L7.94484253,17.4983555 C6.68999305,15.3342498 6.68699262,12.6645239 7.93697457,10.4976025 C9.18695652,8.33068108 11.4993957,6.99685128 14.0008241,6.99993512 Z" id="Path" fill="url(#linearGradient-1)" fill-rule="nonzero"></path>
                    <ellipse id="Oval" fill="#1A73E8" fill-rule="nonzero" cx="14.0008241" cy="13.9998154" rx="5.54107029" ry="5.54157188"></ellipse>
                    <path d="M20.0617634,17.5014472 L14.0012324,27.9995761 C19.0022151,28.0002626 23.6235132,25.3321104 26.123687,21.0005568 C28.6238607,16.6690031 28.6229074,11.3324033 26.1211862,7.00174342 L14.0001825,7.00174342 L13.9987243,7.00716833 C16.50016,7.00234349 18.8135279,8.33459612 20.0649776,10.5006817 C21.3164272,12.6667673 21.3152015,15.3365118 20.0617634,17.5014472 L20.0617634,17.5014472 Z" id="Path" fill="url(#linearGradient-2)" fill-rule="nonzero"></path>
                    <path d="M7.93982641,17.5015638 L1.87929536,7.00343506 C-0.621830768,11.3344601 -0.62202963,16.6710819 1.87877371,21.0022934 C4.37957705,25.3335048 9.00128116,28.0009974 14.0022822,27.9995765 L20.0628133,17.5014472 L20.0589054,17.4974806 C18.8123275,19.6663675 16.5019812,21.0038303 14.0005467,21.0046731 C11.4991121,21.0055159 9.18786523,19.6696103 7.93982641,17.5015638 L7.93982641,17.5015638 Z" id="Path" fill="url(#linearGradient-3)" fill-rule="nonzero"></path>
                </g>
            </g>
        </g>
    </g>
</svg>